<?xml version="1.0" encoding="utf-8"?>
<!-- Svg Vector Icons : http://www.onlinewebfonts.com/icon -->
<!DOCTYPE svg PUBLIC "-//W3C//DTD SVG 1.1//EN" "http://www.w3.org/Graphics/SVG/1.1/DTD/svg11.dtd">
<svg version="1.1" xmlns="http://www.w3.org/2000/svg" xmlns:xlink="http://www.w3.org/1999/xlink" x="0px" y="0px" viewBox="0 0 1000 1000" enable-background="new 0 0 1000 1000" xml:space="preserve">
<metadata> Svg Vector Icons : http://www.onlinewebfonts.com/icon </metadata>
<g><path d="M427.4,808.5V336.7c0-20.1-16.2-36.3-36.3-36.3c-20.1,0-36.3,16.2-36.3,36.3v471.8c0,20.1,16.2,36.3,36.3,36.3C411.2,844.8,427.4,828.6,427.4,808.5z M354.8,82.6h290.4c20.1,0,36.3-16.2,36.3-36.3S665.3,10,645.2,10H354.8c-20.1,0-36.3,16.2-36.3,36.3S334.7,82.6,354.8,82.6z M826.7,264.1c-20.1,0-36.3,16.2-36.3,36.3v544.4c0,40.1-32.5,72.6-72.6,72.6H282.2c-40.1,0-72.6-32.5-72.6-72.6V300.4c0-20.1-16.2-36.3-36.3-36.3c-20,0-36.3,16.2-36.3,36.3v145.2v471.8c0,40.1,32.5,72.6,72.6,72.6h580.7c40.1,0,72.6-32.5,72.6-72.6V445.6V300.4C863,280.3,846.7,264.1,826.7,264.1z M935.6,118.9H64.4c-20,0-36.3,16.2-36.3,36.3s16.3,36.3,36.3,36.3h871.1c20.1,0,36.3-16.2,36.3-36.3S955.6,118.9,935.6,118.9z M645.2,808.5V336.7c0-20.1-16.2-36.3-36.3-36.3c-20.1,0-36.3,16.2-36.3,36.3v471.8c0,20.1,16.2,36.3,36.3,36.3C629,844.8,645.2,828.6,645.2,808.5z"/></g>
</svg>